<svg width="16" height="16" viewBox="0 0 16 16" fill="none" xmlns="http://www.w3.org/2000/svg"><path d="M8.5 7.73241V4.5H7.5V8.26759L10.7226 10.416L11.2774 9.58397L8.5 7.73241Z" fill="#6B6B6B"></path><path fill-rule="evenodd" clip-rule="evenodd" d="M16 8C16 12.4183 12.4183 16 8 16C3.58172 16 0 12.4183 0 8C0 3.58172 3.58172 0 8 0C12.4183 0 16 3.58172 16 8ZM13.5 7.5H14.9824C14.7377 4.03251 11.9675 1.2623 8.5 1.01758V2.5H7.5V1.01758C4.03251 1.2623 1.2623 4.03251 1.01758 7.5H2.5V8.5H1.01758C1.2623 11.9675 4.03251 14.7377 7.5 14.9824V13.5H8.5V14.9824C11.9675 14.7377 14.7377 11.9675 14.9824 8.5H13.5V7.5Z" fill="#6B6B6B"></path></svg>